<?xml version="1.0" standalone="no"?>
<!DOCTYPE svg PUBLIC "-//W3C//DTD SVG 20010904//EN"
 "http://www.w3.org/TR/2001/REC-SVG-20010904/DTD/svg10.dtd">
<svg version="1.0" xmlns="http://www.w3.org/2000/svg"
 width="720.000000pt" height="720.000000pt" viewBox="0 0 720.000000 720.000000"
 preserveAspectRatio="xMidYMid meet">
<metadata>
Created by potrace 1.14, written by Peter Selinger 2001-2017
</metadata>
<g transform="translate(0.000000,720.000000) scale(0.100000,-0.100000)"
fill="#000000" stroke="none">
<path d="M3345 6584 c-105 -11 -370 -57 -460 -80 -1080 -272 -1918 -1110
-2189 -2189 -14 -55 -38 -172 -53 -260 -25 -150 -27 -179 -27 -460 0 -281 2
-310 27 -460 57 -333 137 -583 278 -870 283 -577 762 -1059 1344 -1352 321
-162 699 -271 1058 -304 141 -13 581 -6 677 10 331 57 523 110 755 206 726
302 1318 894 1620 1620 96 232 149 424 206 755 16 96 23 536 10 677 -40 426
-184 872 -399 1233 -409 686 -1047 1171 -1813 1380 -63 18 -193 45 -289 62
-160 27 -198 30 -440 33 -146 2 -283 1 -305 -1z m515 -139 c198 -20 253 -29
406 -65 391 -93 743 -259 1074 -508 155 -117 430 -392 546 -547 304 -407 485
-842 555 -1335 20 -139 24 -203 23 -410 0 -213 -4 -267 -26 -410 -51 -322
-136 -586 -282 -876 -210 -417 -519 -769 -941 -1069 -112 -80 -353 -211 -496
-270 -224 -92 -473 -161 -714 -196 -230 -34 -560 -34 -795 0 -493 70 -928 251
-1335 555 -155 116 -430 391 -547 546 -249 331 -415 682 -507 1072 -37 155
-46 210 -66 408 -20 204 -19 327 5 545 21 192 23 209 63 380 159 684 604 1318
1204 1716 543 360 1201 526 1833 464z"/>
<path d="M2463 5903 c-16 -16 -38 -47 -48 -70 -10 -24 -22 -43 -27 -43 -4 0
-8 -17 -8 -39 0 -37 -1 -39 -40 -45 -64 -10 -97 -86 -61 -140 19 -28 19 -29 0
-61 -14 -24 -17 -35 -8 -40 6 -5 7 -10 2 -14 -6 -3 -13 -21 -16 -38 -6 -29 -1
-38 38 -80 48 -50 55 -51 29 -1 -13 25 -14 32 -2 39 20 13 25 11 33 -13 9 -30
6 -70 -11 -145 -16 -69 -13 -97 18 -160 26 -53 61 -92 112 -127 42 -28 71 -32
111 -14 34 15 32 25 -6 22 -49 -3 -90 13 -132 53 -40 40 -73 91 -63 101 3 3 6
1 6 -5 0 -18 54 -65 99 -86 40 -19 46 -19 70 -6 16 9 27 25 29 42 4 31 5 31
31 15 15 -9 25 -9 45 0 31 14 35 56 10 103 l-15 30 30 -15 c16 -9 37 -16 46
-16 18 0 19 -4 1 -38 -10 -20 -11 -34 -4 -52 14 -34 19 -120 7 -120 -5 0 -9
-9 -9 -20 0 -11 -5 -20 -11 -20 -5 0 -7 6 -3 13 4 6 -5 1 -20 -12 -14 -14 -31
-42 -38 -63 -6 -22 -19 -40 -31 -44 -13 -4 -16 -9 -8 -13 8 -5 9 -15 3 -32 -9
-24 -10 -23 -57 29 -27 28 -52 52 -57 52 -19 0 -5 -31 36 -82 89 -110 69 -132
-43 -47 -75 56 -104 90 -65 75 20 -8 54 2 54 15 0 5 -16 9 -35 9 -35 0 -50 23
-22 33 16 6 8 14 -18 19 -15 2 -21 -3 -23 -24 -2 -16 -6 -28 -10 -28 -4 0 -29
18 -57 41 -27 22 -70 54 -94 71 l-43 31 38 -50 c22 -28 42 -49 45 -47 3 2 17
-8 29 -21 l24 -25 -47 1 c-26 1 -53 -3 -59 -9 -9 -9 -3 -12 28 -12 25 0 34 -3
25 -9 -9 -6 -10 -11 -2 -15 6 -4 14 0 17 8 9 22 21 20 27 -5 4 -16 2 -19 -10
-15 -9 4 -26 -2 -39 -15 l-23 -22 -43 26 c-42 24 -117 104 -168 176 -13 19
-26 29 -28 23 -4 -13 58 -110 88 -137 26 -23 26 -38 0 -30 -26 8 -82 -4 -74
-16 3 -5 18 -9 34 -9 16 0 32 -4 35 -10 3 -5 -1 -10 -10 -10 -44 0 -57 -59
-42 -190 6 -57 14 -110 22 -146 3 -12 -4 -30 -16 -42 -11 -12 -17 -22 -14 -22
3 0 0 -12 -8 -27 -38 -72 -47 -104 -37 -123 14 -27 12 -40 -5 -40 -21 0 -88
35 -104 54 -21 25 -31 19 -31 -19 0 -22 -8 -43 -20 -55 -11 -11 -20 -29 -20
-40 0 -11 -7 -36 -15 -56 -8 -19 -16 -57 -17 -85 -2 -27 -6 -49 -9 -49 -14 0
-16 -39 -3 -69 12 -28 11 -38 -1 -68 -18 -43 -21 -97 -4 -73 9 13 10 13 7 0
-3 -8 1 -26 8 -39 7 -14 11 -28 7 -31 -3 -3 -8 0 -10 6 -8 23 -32 49 -39 42
-8 -9 13 -61 35 -85 42 -45 86 -54 122 -24 22 18 23 20 7 38 -12 13 -14 23 -7
36 14 24 7 93 -8 89 -7 -1 -13 2 -13 8 0 5 4 10 9 10 5 0 8 13 6 29 -2 18 1
31 10 34 15 6 65 111 65 137 0 9 8 24 18 33 9 8 30 40 46 70 25 45 33 53 53
49 18 -3 23 -11 23 -33 0 -16 -4 -29 -10 -29 -5 0 -10 -5 -10 -11 0 -5 -11
-34 -24 -64 -27 -58 -46 -176 -59 -360 -2 -25 -11 -35 -55 -58 -29 -16 -52
-32 -52 -37 0 -14 51 -50 72 -50 18 0 18 -5 12 -67 -4 -38 -8 -104 -9 -148 -1
-44 -3 -82 -4 -85 -7 -15 -6 -358 1 -354 4 3 8 -34 8 -82 0 -64 6 -102 22
-146 12 -35 24 -54 28 -47 6 9 17 8 46 -2 22 -7 73 -12 117 -10 74 2 77 2 78
-21 1 -18 2 -19 6 -5 3 12 10 16 20 13 11 -5 13 -2 8 11 -4 10 -7 23 -7 28 10
128 18 188 58 424 13 80 24 155 24 168 0 34 14 21 43 -39 21 -46 67 -103 67
-84 0 17 -72 146 -86 154 -13 7 -14 19 -7 77 12 103 33 98 33 -8 0 -63 4 -88
15 -97 8 -7 15 -9 15 -4 0 4 6 -1 14 -12 8 -10 23 -19 33 -19 16 0 20 -16 32
-140 7 -79 18 -143 25 -147 8 -6 8 -8 0 -8 -13 0 -1 -82 18 -117 15 -30 28
-30 21 0 -4 20 -2 19 22 -8 14 -16 44 -49 66 -72 l40 -43 22 21 c12 11 48 36
80 56 54 33 63 35 123 31 56 -3 62 -2 50 10 -12 13 -12 20 0 55 19 53 11 59
-10 7 -16 -40 -29 -47 -55 -31 -11 7 -10 13 4 35 10 15 21 41 24 59 5 23 12
31 24 29 14 -2 16 2 12 20 -3 13 -9 54 -15 93 -5 38 -14 71 -20 73 -7 3 -39
27 -73 56 -70 57 -114 89 -140 99 -9 3 -23 19 -29 34 -7 15 -21 41 -32 58
l-21 30 33 -23 c32 -23 46 -16 17 8 -8 7 -15 17 -15 23 0 25 121 257 134 257
37 0 43 -10 38 -65 -7 -82 4 -116 48 -163 44 -46 77 -53 106 -24 17 16 16 17
-20 20 -28 3 -39 9 -46 27 -9 23 3 141 15 153 4 4 23 -3 43 -15 33 -18 38 -26
42 -69 9 -90 78 -150 144 -126 28 11 33 10 48 -10 19 -26 15 -38 -13 -38 -10
0 -19 -4 -19 -10 0 -5 -6 -10 -12 -10 -7 0 -26 -12 -43 -26 l-30 -26 36 21
c37 21 90 31 59 11 -13 -8 -13 -10 1 -10 9 0 24 -11 33 -25 18 -27 44 -33 51
-12 3 6 6 27 8 45 2 17 7 35 10 39 4 3 7 14 7 23 0 9 13 29 29 44 l29 27 25
-25 c35 -35 50 -33 29 4 -25 44 -8 65 53 64 26 0 50 -6 54 -13 4 -7 31 -14 60
-17 37 -4 65 -14 93 -34 65 -47 78 -39 78 51 0 36 3 48 12 43 8 -5 9 -2 4 12
-17 41 -16 51 11 104 20 40 45 68 91 102 60 45 61 48 37 54 -34 8 -90 -3 -105
-21 -15 -19 -40 -20 -40 -2 0 30 -72 105 -102 107 -4 0 -11 -15 -16 -32 -4
-18 -12 -33 -18 -33 -25 2 -144 18 -144 20 0 9 65 154 98 220 40 78 40 81 23
99 -34 33 -54 13 -118 -117 -33 -67 -66 -139 -74 -159 -15 -45 -29 -52 -66
-33 -37 19 -84 19 -126 -1 -29 -14 -38 -14 -60 -3 -40 22 -251 229 -264 261
-7 15 -17 28 -23 28 -19 0 -70 92 -70 128 0 31 2 33 17 21 15 -13 16 -11 10
11 -25 105 -30 151 -19 162 8 8 15 8 28 -3 16 -12 17 -12 11 4 -8 22 -5 22 25
-5 27 -25 67 -85 49 -74 -22 14 -10 -11 34 -74 25 -36 50 -81 55 -101 6 -20
21 -53 35 -73 14 -20 25 -41 25 -46 0 -6 8 -10 17 -10 13 0 14 -3 5 -12 -14
-14 -16 -62 -2 -53 5 3 20 -1 32 -10 23 -17 22 -17 -17 -11 l-40 6 24 -20 c24
-21 81 -28 81 -10 0 6 -6 10 -12 10 -9 0 -8 3 2 9 8 6 18 7 22 5 4 -3 8 5 8
17 0 12 -3 19 -7 16 -9 -9 -74 63 -67 74 10 17 22 9 44 -27 12 -19 25 -33 28
-30 3 3 11 1 19 -6 27 -22 23 0 -7 37 -31 39 -47 81 -36 92 3 3 2 11 -3 17 -5
6 -17 49 -26 96 -21 106 -74 273 -89 282 -6 5 -7 8 -1 8 17 0 81 -37 146 -85
34 -25 145 -88 248 -141 102 -53 209 -109 236 -123 28 -15 77 -37 110 -49 33
-13 78 -31 100 -42 59 -27 72 -30 176 -34 57 -3 95 -9 97 -15 3 -9 8 -9 18 0
17 14 228 6 311 -13 l52 -11 -4 -43 c-2 -23 -7 -54 -11 -68 -8 -34 7 -34 66 0
48 27 80 26 115 -5 41 -36 106 -52 189 -44 117 9 128 23 215 271 38 108 88
255 111 325 41 126 43 128 94 167 32 25 64 60 80 91 25 44 28 59 24 118 -3 55
-9 75 -31 104 -23 30 -27 45 -27 101 0 36 4 66 8 66 30 0 58 157 42 235 -12
58 -61 128 -98 139 -10 3 -48 66 -86 139 -43 85 -78 139 -95 150 -14 9 -48 35
-76 57 -138 111 -312 152 -515 120 -73 -12 -192 -48 -201 -62 -3 -5 -10 -8
-15 -7 -5 1 -22 -3 -37 -9 -16 -7 -33 -12 -38 -12 -5 0 -9 -4 -9 -8 0 -4 -25
-16 -55 -27 -30 -10 -55 -22 -55 -26 0 -5 -11 -11 -25 -15 -14 -3 -25 -10 -25
-15 0 -5 -7 -9 -15 -9 -8 0 -15 -4 -15 -10 0 -5 -7 -10 -15 -10 -8 0 -15 -4
-15 -10 0 -5 -5 -10 -11 -10 -5 0 -37 -18 -70 -40 -32 -23 -59 -38 -59 -35 0
3 -9 -4 -20 -15 -37 -37 -20 -30 82 37 114 74 329 181 428 213 209 68 391 68
550 -1 27 -11 56 -29 66 -40 19 -22 16 -23 -20 -9 -19 7 -38 5 -72 -8 l-46
-17 -20 28 c-16 22 -27 27 -61 27 -23 -1 -67 -10 -97 -22 -30 -11 -91 -23
-135 -27 -55 -4 -80 -10 -80 -19 0 -7 -5 -16 -11 -20 -6 -4 -14 -19 -18 -34
-3 -15 -19 -42 -35 -60 -20 -24 -30 -47 -33 -83 -8 -72 -10 -79 -38 -92 -19
-8 -20 -12 -7 -12 21 -1 23 -39 4 -66 -11 -15 -22 -17 -55 -11 -25 4 -42 2
-42 -4 0 -5 -7 -7 -15 -4 -8 4 -15 13 -15 21 0 21 -24 10 -29 -13 -2 -10 -12
-25 -22 -32 -11 -7 -17 -18 -14 -23 6 -9 -14 -14 -47 -11 -10 1 -18 -3 -18 -9
0 -7 -9 -9 -21 -6 -13 4 -26 -2 -37 -15 -38 -46 -44 -50 -53 -36 -7 10 -9 10
-9 -3 0 -8 -11 -25 -24 -36 l-24 -21 -6 21 c-6 21 -7 21 -22 -5 -10 -19 -24
-29 -42 -30 -15 -1 -36 -3 -47 -4 -11 -1 -38 -3 -60 -5 -29 -2 -21 -4 30 -8
l70 -6 -32 -18 c-18 -10 -33 -14 -33 -10 0 5 -5 1 -10 -7 -8 -12 -12 -12 -18
-2 -6 9 -16 10 -33 4 -13 -5 -28 -10 -34 -10 -5 -1 -12 -11 -15 -23 -3 -12
-15 -26 -28 -30 -19 -7 -22 -5 -22 16 0 16 -6 25 -15 25 -8 0 -15 -6 -15 -13
0 -14 -37 -41 -60 -44 -8 -1 -28 -3 -45 -4 -35 -3 -70 -24 -70 -42 0 -6 -9
-13 -20 -13 -11 -1 -22 -3 -25 -4 -20 -10 -50 -5 -50 7 0 23 -25 9 -28 -15 -2
-12 -8 -20 -13 -17 -5 3 -6 -1 -3 -9 3 -9 2 -16 -4 -16 -5 0 -12 -9 -15 -20
-3 -11 -12 -20 -20 -20 -24 0 -178 81 -184 96 -3 8 -18 14 -33 14 -26 0 -40
-20 -44 -64 -1 -8 -26 -22 -26 -14 0 2 7 21 15 43 17 48 20 79 5 55 -8 -12
-10 -12 -16 3 -3 9 -3 25 0 35 5 14 4 14 -9 -2 -15 -19 -15 -19 -15 2 0 12 4
22 9 22 21 0 41 -13 41 -28 0 -13 2 -13 18 1 10 10 28 17 39 17 35 0 47 24 29
59 -9 16 -25 36 -36 44 -20 14 -19 16 25 103 45 90 58 107 30 40 -22 -53 -9
-44 15 11 11 26 18 53 15 60 -2 8 -1 12 4 9 18 -11 131 287 137 358 3 41 1 46
-11 36 -8 -6 -29 -47 -46 -90 -18 -44 -36 -77 -40 -75 -4 3 -9 -2 -12 -9 -3
-8 -2 -16 2 -18 5 -2 0 -21 -10 -43 -17 -35 -17 -28 -2 25 2 8 -5 -1 -16 -20
-22 -38 -27 -65 -10 -55 5 4 4 -8 -4 -27 -54 -123 -82 -179 -85 -170 -2 6 9
34 23 62 15 29 24 54 22 57 -8 8 -50 -89 -53 -122 -1 -16 -8 -46 -16 -66 -12
-33 -15 -35 -41 -26 -16 5 -27 16 -27 26 0 44 -96 76 -122 41 -8 -12 -9 -12
-4 2 9 29 -11 30 -33 2 -21 -26 -23 -27 -64 -14 -29 8 -58 29 -94 67 -81 87
-87 94 -73 103 8 5 2 15 -19 33 -21 18 -26 27 -17 30 14 6 56 -35 56 -53 0
-15 17 -12 24 5 3 8 12 15 21 15 8 0 15 5 15 10 0 16 26 12 41 -6 13 -15 79
-16 134 -1 11 3 23 6 28 6 15 2 6 49 -13 66 -14 12 -17 22 -11 34 8 14 4 16
-30 13 -79 -8 -117 46 -149 210 -25 124 -38 167 -58 191 -23 25 -65 21 -99
-10z m77 -22 c15 -30 12 -50 -5 -27 -12 16 -17 17 -44 5 -16 -7 -35 -23 -42
-36 -6 -12 -18 -24 -25 -27 -23 -9 6 52 38 79 35 30 64 32 78 6z m-170 -300
c0 -4 -9 -7 -20 -7 -19 0 -27 16 -13 29 6 7 33 -11 33 -22z m330 -101 c0 -5
-2 -10 -4 -10 -3 0 -8 5 -11 10 -3 6 -1 10 4 10 6 0 11 -4 11 -10z m2553 -60
c3 -12 0 -20 -8 -20 -7 0 -12 11 -12 25 0 28 12 25 20 -5z m-2707 -115 c4 -15
1 -32 -6 -40 -19 -23 -32 -18 -24 8 4 12 7 30 6 40 -1 26 17 20 24 -8z m-189
-132 c-3 -10 -5 -4 -5 12 0 17 2 24 5 18 2 -7 2 -21 0 -30z m528 -13 c23 -9
25 -13 15 -25 -19 -22 -39 -18 -50 10 -5 14 -14 25 -20 25 -5 0 -10 5 -10 10
0 7 6 7 19 0 11 -5 32 -15 46 -20z m2532 -62 c-3 -7 -5 -2 -5 12 0 14 2 19 5
13 2 -7 2 -19 0 -25z m-2422 -12 c13 -8 32 -28 44 -44 18 -26 18 -29 3 -29 -9
0 -34 15 -55 33 -20 19 -45 34 -55 33 -14 0 -12 -3 7 -17 14 -9 34 -25 45 -35
18 -15 14 -15 -22 3 -23 11 -50 19 -59 18 -10 -2 -19 7 -24 25 -6 24 -4 29 14
36 24 9 68 -1 102 -23z m2306 -63 c-9 -16 -10 -16 -11 4 0 12 3 30 7 40 7 16
8 16 11 -4 2 -12 -1 -30 -7 -40z m106 15 c-3 -8 -6 -5 -6 6 -1 11 2 17 5 13 3
-3 4 -12 1 -19z m-2493 -34 c2 -6 0 -17 -5 -25 -7 -12 -9 -12 -9 1 -1 8 -9 0
-19 -19 l-18 -33 -1 45 c-2 42 0 45 23 43 14 0 27 -6 29 -12z m1657 -67 c3 -5
13 -2 22 7 17 17 32 6 39 -29 2 -14 10 -19 26 -17 15 2 22 -2 22 -12 0 -9 5
-16 10 -16 6 0 9 6 8 12 -2 9 9 13 32 13 19 0 40 4 46 8 7 4 17 0 24 -8 8 -9
8 -15 2 -15 -6 0 -9 -12 -7 -27 5 -48 -2 -53 -75 -53 -41 0 -72 -5 -76 -12 -4
-6 -3 -9 2 -6 16 10 56 -11 49 -24 -4 -7 0 -5 8 5 9 10 28 17 51 17 35 0 36
-1 38 -42 1 -24 2 -51 2 -60 0 -10 5 -19 13 -22 10 -4 13 10 13 59 l0 65 90 0
c119 0 117 18 -2 22 -90 3 -93 4 -91 26 2 12 -3 22 -10 22 -9 0 -8 3 1 9 8 4
13 11 13 15 -6 41 -1 46 47 46 53 0 67 -7 52 -25 -8 -9 -4 -11 15 -7 17 3 24
9 21 18 -3 8 -1 14 4 14 6 0 10 -4 10 -10 0 -5 11 -10 24 -10 14 0 30 -10 41
-26 9 -14 22 -23 30 -20 17 6 86 -15 79 -25 -7 -11 55 8 82 26 13 8 27 15 31
15 16 0 12 -63 -8 -113 -46 -114 -77 -222 -68 -233 5 -6 5 -24 -1 -45 -22 -76
-6 -69 35 16 24 50 44 88 44 85 0 -3 -8 -33 -19 -68 -11 -36 -17 -75 -14 -90
4 -19 3 -23 -4 -13 -8 11 -11 9 -17 -10 -4 -13 -17 -51 -30 -84 -41 -110 -50
-146 -37 -154 7 -4 8 -12 2 -21 -9 -13 -10 -13 -10 0 0 13 -1 13 -10 0 -8 -12
-10 -11 -10 7 0 32 -10 53 -26 53 -8 0 -33 29 -56 65 -24 36 -48 65 -55 65 -7
0 -13 11 -13 24 0 27 -60 86 -88 86 -10 0 -31 14 -48 32 -16 18 -22 27 -12 20
19 -15 198 -15 198 -1 0 5 -16 9 -35 9 -24 0 -35 5 -35 15 0 8 -5 15 -11 15
-6 0 -9 -7 -5 -15 4 -12 -5 -15 -49 -15 l-54 0 -3 72 c-2 46 -7 73 -15 76 -9
2 -13 -7 -13 -27 0 -18 5 -31 13 -31 9 0 9 -2 0 -8 -7 -4 -10 -21 -8 -40 4
-31 -7 -43 -20 -22 -9 14 -107 70 -122 70 -27 0 -11 -21 37 -51 28 -17 48 -35
44 -40 -3 -5 6 -13 20 -19 37 -14 60 -53 46 -80 -18 -34 -7 -56 66 -135 36
-39 74 -139 74 -196 0 -22 -7 -28 -47 -40 -37 -11 -49 -19 -51 -36 -5 -32 -51
-30 -103 3 -37 23 -142 49 -159 39 -3 -2 -21 5 -39 16 -19 11 -39 18 -46 15
-7 -2 -23 2 -34 11 -12 8 -32 12 -44 9 -11 -3 -27 0 -35 6 -7 6 -49 12 -93 14
-43 1 -85 3 -91 3 -7 0 -34 -2 -59 -5 -51 -6 -198 33 -229 61 -18 16 -27 19
-107 31 -40 5 -57 15 -97 55 -43 43 -54 49 -95 51 -25 1 -56 2 -67 3 -12 0
-32 8 -45 17 -42 27 -182 95 -224 108 -69 22 -63 30 23 30 93 0 131 -12 186
-60 20 -18 39 -30 42 -28 11 11 -21 59 -55 82 -65 44 -83 47 -265 40 l-171 -7
-40 27 c-22 15 -43 33 -47 39 -16 25 -7 56 22 81 23 19 33 39 42 83 6 32 18
64 26 71 14 11 14 12 0 12 -19 0 -12 49 8 57 8 3 42 -13 76 -34 35 -22 78 -45
96 -52 18 -8 30 -16 28 -19 -3 -2 6 -14 20 -25 20 -15 23 -22 12 -29 -10 -7
-10 -11 0 -15 6 -2 12 -18 12 -34 0 -21 4 -27 15 -23 8 4 15 12 15 20 0 7 12
17 28 20 15 4 33 11 40 17 8 6 12 6 12 -3 0 -25 38 -46 79 -44 23 1 41 -1 41
-5 0 -4 16 -15 35 -24 26 -12 35 -23 35 -42 0 -18 4 -23 15 -19 8 4 15 14 15
24 0 13 7 17 25 16 14 0 25 -4 25 -8 0 -15 20 -8 44 17 14 14 29 25 33 24 19
-3 53 14 53 27 0 16 30 33 48 27 7 -3 21 2 31 11 10 9 21 13 24 9 4 -3 13 0
20 9 15 19 63 45 97 52 14 3 37 17 52 31 34 31 97 59 192 85 107 29 129 36
166 55 19 10 47 18 62 17 15 0 29 6 32 15 5 13 9 13 24 2 9 -8 20 -18 23 -22z
m-1655 -124 c-8 -15 -15 -25 -16 -21 0 12 23 58 27 54 3 -2 -2 -17 -11 -33z
m-533 -57 c26 -22 38 -44 17 -31 -5 3 -10 -1 -10 -9 0 -9 -7 -16 -16 -16 -12
0 -14 7 -9 32 6 26 5 30 -9 25 -10 -4 -16 -1 -16 8 0 21 11 19 43 -9z m119
-88 l72 -53 -38 -6 c-22 -4 -47 -4 -56 -2 -28 7 -79 113 -55 113 3 0 38 -24
77 -52z m2834 -130 c4 -6 3 -8 -3 -5 -6 4 -13 -3 -16 -15 -4 -12 -9 -19 -12
-16 -6 6 11 48 20 48 2 0 7 -5 11 -12z m-2266 -153 c0 -18 -4 -23 -15 -19 -17
7 -17 7 -9 28 9 24 24 19 24 -9z m-1192 -248 l22 -24 -29 5 c-22 3 -28 8 -24
23 7 24 5 24 31 -4z m3250 -48 c-2 -7 -10 -4 -18 7 -9 11 -10 15 -2 10 7 -4
12 -2 13 6 0 10 2 10 6 1 2 -7 3 -18 1 -24z m-3139 -13 c9 -10 8 -15 -3 -19
-14 -5 -36 10 -36 25 0 13 27 9 39 -6z m3126 -26 c3 -5 1 -10 -4 -10 -6 0 -11
5 -11 10 0 6 2 10 4 10 3 0 8 -4 11 -10z m-14 -51 c-10 -26 -18 -50 -20 -62 0
-4 -7 -20 -14 -35 -8 -15 -12 -33 -9 -40 3 -9 -2 -13 -14 -10 -27 5 -25 48 3
75 13 12 23 25 23 28 0 14 31 78 36 73 2 -3 0 -16 -5 -29z m-62 -175 c11 -10
-33 -41 -58 -42 l-29 -1 16 29 c14 24 22 28 42 23 14 -3 27 -7 29 -9z m-2557
-145 c13 -1 40 -1 61 -1 22 0 37 -4 38 -11 0 -7 4 -3 9 8 8 19 8 19 18 -5 l11
-25 0 30 1 30 29 -30 c28 -30 29 -45 6 -75 -6 -8 -24 -53 -40 -100 -15 -47
-31 -89 -35 -93 -4 -5 -35 29 -70 74 -70 94 -71 89 38 114 40 9 72 21 72 26 0
5 -45 9 -100 9 -93 0 -100 1 -100 20 0 10 5 31 12 45 12 26 12 26 20 6 4 -12
17 -22 30 -22z m1149 -15 c26 -5 26 -6 21 -77 -5 -77 -12 -92 -45 -103 -11 -3
-25 -11 -31 -16 -30 -26 -132 -98 -138 -98 -19 0 0 104 40 228 l27 83 50 -6
c27 -3 62 -8 76 -11z m-1761 -34 c0 -5 -2 -10 -4 -10 -3 0 -8 5 -11 10 -3 6
-1 10 4 10 6 0 11 -4 11 -10z m1520 -5 c0 -8 -8 -23 -17 -34 -10 -10 -31 -35
-46 -55 l-28 -36 -21 20 c-12 11 -25 20 -30 20 -4 0 -8 7 -8 15 0 19 63 68 97
76 46 11 53 10 53 -6z m-320 -35 c20 -20 20 -20 1 -20 -11 0 -26 -7 -34 -15
-17 -16 -27 -10 -27 16 0 13 5 17 18 12 11 -4 8 1 -8 16 l-25 22 28 -6 c15 -3
36 -14 47 -25z m-1245 -20 c13 11 18 10 29 -6 8 -10 13 -20 12 -22 -9 -8 -80
16 -84 28 -5 13 -3 13 11 1 14 -11 20 -11 32 -1z m632 -95 c-28 -14 -37 -1
-30 39 l6 30 23 -29 23 -29 -22 -11z m596 49 c9 -10 -4 -34 -19 -34 -8 0 -14
6 -14 13 0 22 19 35 33 21z m587 -69 c0 -9 -6 -12 -15 -9 -8 4 -12 10 -9 15 8
14 24 10 24 -6z m-420 -5 c0 -5 -4 -10 -10 -10 -5 0 -10 5 -10 10 0 6 5 10 10
10 6 0 10 -4 10 -10z m143 -52 c4 -18 9 -43 13 -55 5 -18 1 -25 -18 -34 -22
-9 -29 -7 -51 15 l-25 25 29 41 c16 22 33 40 38 40 5 0 11 -15 14 -32z m167 2
c-8 -5 -19 -10 -25 -10 -5 0 -3 5 5 10 8 5 20 10 25 10 6 0 3 -5 -5 -10z
m-962 -36 c-4 -3 -12 5 -18 18 -12 22 -12 22 6 6 10 -10 15 -20 12 -24z m-33
-204 c3 -5 1 -10 -4 -10 -6 0 -11 5 -11 10 0 6 2 10 4 10 3 0 8 -4 11 -10z
m-548 -22 c-3 -8 -6 -5 -6 6 -1 11 2 17 5 13 3 -3 4 -12 1 -19z m-2 -27 c-3
-6 2 -37 11 -70 l17 -61 46 -1 c25 -1 57 -4 71 -8 27 -7 26 -6 30 -116 1 -33
8 -79 16 -102 7 -23 11 -49 8 -57 -3 -8 -1 -17 5 -21 6 -3 11 -12 11 -20 0 -9
-19 -16 -57 -20 -82 -9 -97 -15 -84 -28 6 -6 11 -19 11 -28 0 -16 -4 -17 -32
-7 -57 18 -60 27 -65 150 -2 62 -8 141 -13 175 -10 71 7 223 25 223 4 0 4 -4
0 -9z m321 -270 c-9 -54 -16 -102 -17 -107 0 -5 -5 4 -10 21 -5 19 -4 48 5 85
8 30 18 75 22 100 5 30 9 38 12 23 2 -13 -4 -67 -12 -122z m289 -18 c8 -3 15
-11 15 -18 0 -16 22 -25 75 -31 22 -3 46 -11 53 -18 11 -11 9 -15 -16 -24 -18
-6 -38 -24 -47 -43 l-17 -32 -45 45 c-45 45 -46 47 -49 119 -3 62 -2 69 7 41
5 -18 16 -35 24 -39z m-318 -105 c4 -7 6 -22 5 -33 -7 -54 -13 -65 -36 -65
-12 0 -25 3 -29 6 -8 9 15 44 30 44 9 0 11 10 7 30 -7 31 8 41 23 18z m-15
-168 c-5 -37 -26 -34 -30 3 -3 21 1 27 16 27 15 0 18 -6 14 -30z m-219 -7 c-7
-2 -19 -2 -25 0 -7 3 -2 5 12 5 14 0 19 -2 13 -5z"/>
<path d="M5018 4783 c7 -3 16 -2 19 1 4 3 -2 6 -13 5 -11 0 -14 -3 -6 -6z"/>
<path d="M4737 4740 c3 -11 10 -23 16 -27 5 -3 7 -1 3 5 -3 6 -2 13 4 17 17
10 11 25 -9 25 -14 0 -18 -5 -14 -20z"/>
<path d="M3253 4705 c-3 -9 -3 -18 -1 -21 3 -3 8 4 11 16 6 23 -1 27 -10 5z"/>
<path d="M3066 4678 c-16 -77 -15 -99 2 -96 13 2 18 16 20 55 4 52 -13 83 -22
41z"/>
<path d="M4855 4640 c3 -5 8 -10 11 -10 2 0 4 5 4 10 0 6 -5 10 -11 10 -5 0
-7 -4 -4 -10z"/>
<path d="M4700 4620 c0 -5 5 -10 11 -10 5 0 7 5 4 10 -3 6 -8 10 -11 10 -2 0
-4 -4 -4 -10z"/>
<path d="M4910 4610 c0 -5 5 -10 10 -10 6 0 10 5 10 10 0 6 -4 10 -10 10 -5 0
-10 -4 -10 -10z"/>
<path d="M4945 4570 c-3 -5 -2 -10 4 -10 5 0 13 5 16 10 3 6 2 10 -4 10 -5 0
-13 -4 -16 -10z"/>
<path d="M3812 4489 c18 -12 88 -11 88 1 0 5 -23 9 -51 8 -32 0 -46 -4 -37 -9z"/>
<path d="M4650 4488 c0 -5 11 -7 25 -5 37 5 41 16 6 15 -17 -1 -31 -5 -31 -10z"/>
<path d="M5106 4267 c-3 -15 -2 -35 3 -45 9 -15 10 -14 11 6 0 12 5 22 10 22
6 0 10 10 10 23 0 16 -3 18 -9 8 -7 -11 -9 -11 -13 0 -3 8 -8 1 -12 -14z"/>
<path d="M2065 2730 c3 -6 21 -17 38 -26 l32 -15 -28 25 c-28 26 -54 35 -42
16z"/>
<path d="M3798 5454 c-50 -42 -58 -50 -38 -39 33 19 100 67 100 71 0 12 -23 0
-62 -32z"/>
<path d="M3080 5391 c-12 -24 -13 -34 -1 -27 9 6 22 46 15 46 -2 0 -8 -9 -14
-19z"/>
<path d="M4170 5390 c0 -5 7 -10 15 -10 8 0 15 5 15 10 0 6 -7 10 -15 10 -8 0
-15 -4 -15 -10z"/>
<path d="M4210 5389 c0 -5 24 -9 53 -9 33 0 47 3 38 9 -18 12 -91 12 -91 0z"/>
<path d="M3690 5370 c-14 -11 -20 -20 -14 -20 6 0 19 9 29 20 23 25 17 25 -15
0z"/>
<path d="M3562 5265 c-30 -25 -50 -45 -45 -45 9 1 112 90 103 90 -3 0 -29 -21
-58 -45z"/>
<path d="M2284 5273 c-9 -34 -21 -46 -59 -60 -61 -22 -115 -48 -115 -56 0 -5
8 -6 18 -2 56 23 126 44 130 40 3 -3 5 -19 4 -37 0 -17 6 -41 14 -52 13 -19
14 -15 15 44 0 36 3 84 5 108 6 47 -2 56 -12 15z"/>
<path d="M2316 5258 c-8 -31 -7 -38 2 -38 4 0 9 14 10 30 3 35 -3 39 -12 8z"/>
<path d="M1926 4943 c-28 -56 -56 -167 -56 -225 0 -51 3 -61 19 -65 11 -3 21
-15 23 -27 2 -13 9 2 19 39 9 33 20 69 24 79 6 13 5 17 -3 13 -6 -4 -16 -24
-22 -45 -15 -46 -22 -53 -38 -43 -11 6 -10 27 4 107 9 54 24 120 34 147 20 52
18 62 -4 20z"/>
<path d="M2412 4900 c0 -14 2 -19 5 -12 2 6 2 18 0 25 -3 6 -5 1 -5 -13z"/>
<path d="M1950 4784 c0 -8 5 -12 10 -9 6 3 10 10 10 16 0 5 -4 9 -10 9 -5 0
-10 -7 -10 -16z"/>
<path d="M1881 4464 c0 -11 3 -14 6 -6 3 7 2 16 -1 19 -3 4 -6 -2 -5 -13z"/>
<path d="M1872 4415 c0 -16 2 -22 5 -12 2 9 2 23 0 30 -3 6 -5 -1 -5 -18z"/>
<path d="M1862 4360 c0 -14 2 -19 5 -12 2 6 2 18 0 25 -3 6 -5 1 -5 -13z"/>
<path d="M1851 4284 c0 -11 3 -14 6 -6 3 7 2 16 -1 19 -3 4 -6 -2 -5 -13z"/>
<path d="M5216 3978 c-34 -61 -72 -141 -115 -241 l-21 -49 -34 21 c-65 41
-128 20 -206 -66 -61 -69 -110 -168 -117 -236 -5 -50 -3 -55 29 -89 41 -44 82
-57 117 -37 13 8 53 47 88 86 61 71 63 72 69 45 15 -70 61 -142 90 -142 13 0
13 3 0 22 -47 66 14 322 137 581 64 135 67 158 19 165 -16 3 -28 -10 -56 -60z
m-158 -345 c7 -47 -207 -287 -239 -268 -13 9 27 111 69 173 70 102 162 154
170 95z"/>
<path d="M4149 3720 c-46 -24 -89 -78 -125 -155 -21 -47 -28 -76 -28 -132 -1
-66 1 -74 29 -103 84 -89 178 -80 272 24 55 61 95 145 97 206 1 56 -26 97 -97
145 -59 40 -94 43 -148 15z m141 -66 c32 -7 32 -8 28 -53 -10 -99 -100 -225
-183 -256 -63 -24 -79 -16 -71 38 16 105 98 251 151 266 40 12 38 12 75 5z"/>
<path d="M4511 3664 c-29 -13 -64 -24 -77 -24 -31 0 -30 -14 2 -39 18 -14 34
-18 55 -14 l29 6 -21 -49 c-50 -117 -45 -204 15 -249 56 -43 84 -31 106 46 11
36 6 36 -37 -1 -50 -44 -57 -40 -50 36 4 50 15 87 51 160 25 53 46 101 46 108
0 17 -33 46 -51 45 -8 0 -38 -11 -68 -25z"/>
<path d="M2874 3225 c11 -8 25 -15 30 -15 6 0 2 7 -8 15 -11 8 -25 15 -30 15
-6 0 -2 -7 8 -15z"/>
<path d="M2670 2545 c1 -11 7 -33 15 -50 l15 -30 -6 40 c-6 43 -24 73 -24 40z"/>
<path d="M2972 2535 c0 -16 2 -22 5 -12 2 9 2 23 0 30 -3 6 -5 -1 -5 -18z"/>
<path d="M2981 2455 c-1 -27 -4 -61 -8 -74 -4 -17 -3 -22 5 -17 8 5 12 -2 11
-21 0 -25 -1 -26 -9 -8 -7 16 -9 11 -9 -20 0 -31 2 -36 9 -20 8 19 9 18 9 -4
1 -13 4 -21 8 -18 8 9 5 101 -6 177 l-9 55 -1 -50z"/>
<path d="M2685 2443 c4 -10 18 -53 32 -96 l26 -77 36 6 c52 9 57 18 38 59 -9
20 -17 42 -17 50 0 9 -10 15 -25 15 -14 0 -25 -4 -25 -10 0 -5 5 -10 11 -10 5
0 7 -4 4 -10 -12 -19 -23 -10 -44 40 -12 28 -26 50 -32 50 -7 0 -8 -7 -4 -17z"/>
<path d="M2192 2418 c-7 -7 -12 -29 -12 -51 0 -21 -5 -48 -11 -59 -9 -17 -8
-24 2 -32 12 -9 44 -107 65 -198 7 -34 22 -37 21 -5 0 12 2 47 6 77 10 88 18
246 11 231 -5 -9 -11 -4 -20 18 -14 32 -40 41 -62 19z"/>
<path d="M2003 2335 c0 -38 2 -53 4 -32 2 20 2 52 0 70 -2 17 -4 1 -4 -38z"/>
<path d="M2873 2183 c-80 -3 -113 -7 -113 -16 0 -7 14 -48 30 -92 16 -44 30
-92 30 -107 0 -14 -14 -61 -31 -103 -29 -72 -32 -105 -10 -105 5 0 19 17 32
38 l23 37 4 -30 c1 -16 8 -40 14 -52 6 -12 8 -28 5 -36 -4 -12 5 -17 41 -21
71 -8 120 -6 146 4 22 8 26 5 35 -22 6 -17 23 -46 37 -65 25 -33 25 -35 9 -61
l-16 -27 20 24 c26 29 26 39 -1 123 l-22 68 20 47 c25 60 44 68 37 16 -4 -28
-1 -42 11 -52 14 -12 20 -11 40 8 29 27 79 126 74 143 -3 7 -21 -13 -41 -44
-50 -78 -57 -79 -57 -14 0 72 -19 74 -60 9 -24 -37 -30 -42 -30 -25 0 13 -7
39 -15 60 -13 29 -18 34 -25 22 -5 -8 -10 -10 -11 -5 -5 57 -9 88 -18 135 -5
30 -13 76 -16 103 -4 28 -11 46 -18 45 -7 -1 -63 -4 -124 -5z m30 -260 c-7 -2
-19 -2 -25 0 -7 3 -2 5 12 5 14 0 19 -2 13 -5z m100 0 c-13 -2 -35 -2 -50 0
-16 2 -5 4 22 4 28 0 40 -2 28 -4z m-93 -77 c0 -3 -4 -8 -10 -11 -5 -3 -10 -1
-10 4 0 6 5 11 10 11 6 0 10 -2 10 -4z"/>
<path d="M2007 2158 c-4 -12 -2 -27 2 -32 4 -6 7 -26 6 -43 -2 -18 1 -33 6
-33 5 0 9 -13 9 -29 0 -17 5 -33 11 -37 8 -5 10 3 6 27 -4 19 -9 62 -13 97 -7
66 -18 86 -27 50z"/>
<path d="M2080 2091 c-35 -6 -35 -7 -12 -21 12 -8 22 -22 22 -32 0 -26 11 -48
24 -48 15 0 12 -100 -5 -153 -10 -29 -16 -36 -31 -31 -24 7 -23 -11 1 -28 25
-18 37 -63 19 -74 -7 -5 -28 -9 -46 -9 -28 0 -32 3 -27 20 14 50 14 66 0 31
-22 -56 -105 -131 -105 -94 0 6 -6 8 -14 5 -7 -3 -19 0 -25 6 -6 6 -13 8 -17
4 -10 -10 6 -27 26 -27 10 0 22 -5 25 -10 4 -6 15 -8 24 -5 13 4 20 -3 29 -32
6 -20 10 -38 9 -40 -2 -1 -22 4 -47 11 -29 9 -46 20 -52 36 -13 34 -22 16 -10
-19 12 -34 10 -36 -18 -19 -20 13 -36 6 -26 -11 7 -10 112 -61 128 -61 5 0 4
8 -1 19 -9 16 -8 18 8 14 11 -3 21 -13 24 -22 8 -34 224 -70 242 -41 3 6 -1
10 -10 10 -14 0 -16 5 -9 28 4 15 7 42 6 60 l-2 33 26 -28 27 -28 -7 25 c-4
14 -9 40 -13 58 -3 17 -10 32 -15 32 -6 0 -7 17 -3 41 4 23 3 51 -3 63 -5 11
-24 84 -42 161 -33 139 -48 186 -59 184 -3 -1 -22 -5 -41 -8z m137 -373 c-3
-8 -6 -5 -6 6 -1 11 2 17 5 13 3 -3 4 -12 1 -19z"/>
<path d="M4692 2007 c-5 -6 -19 -34 -30 -60 -18 -40 -25 -47 -41 -42 -30 9
-57 -10 -86 -59 -30 -52 -31 -67 -5 -91 20 -18 21 -18 54 14 l33 32 8 -28 c7
-25 10 -20 26 44 10 40 29 100 42 133 23 56 22 86 -1 57z m-62 -137 c0 -13
-71 -92 -77 -86 -8 7 7 43 28 70 20 26 49 35 49 16z"/>
<path d="M2658 1906 c-24 -17 -23 -39 2 -61 11 -10 20 -13 20 -7 0 6 -6 12
-12 15 -9 3 -8 10 6 26 24 26 46 27 53 1 6 -23 23 -27 23 -6 0 17 -38 46 -60
46 -8 0 -23 -7 -32 -14z"/>
<path d="M3842 1895 c-17 -14 -39 -40 -50 -59 l-20 -34 33 -32 c30 -29 38 -32
76 -27 25 3 51 15 63 28 15 16 17 20 5 16 -32 -11 -129 -19 -129 -11 0 5 28
25 62 44 69 40 78 53 53 80 -24 27 -57 25 -93 -5z m44 -30 c-11 -8 -25 -15
-30 -15 -6 0 -2 7 8 15 11 8 25 15 30 15 6 0 2 -7 -8 -15z"/>
<path d="M4792 1895 c-17 -14 -39 -40 -50 -59 l-20 -34 32 -31 c36 -35 71 -40
116 -16 43 22 37 34 -12 24 -90 -17 -118 -4 -55 26 19 9 49 28 67 44 l33 28
-21 21 c-29 29 -54 28 -90 -3z m58 -13 c0 -5 -12 -14 -27 -21 l-28 -11 24 20
c26 22 31 24 31 12z"/>
<path d="M4231 1884 c-25 -21 -31 -34 -31 -64 0 -21 5 -42 10 -45 6 -4 10 8
10 29 0 27 8 44 35 71 42 41 22 48 -24 9z"/>
<path d="M4390 1888 c-11 -12 -25 -39 -31 -59 -14 -45 0 -76 38 -85 37 -10 93
50 93 100 0 60 -61 86 -100 44z m80 -19 c0 -27 -35 -81 -63 -95 l-30 -16 6 37
c9 52 32 85 62 85 14 0 25 -5 25 -11z"/>
<path d="M2029 1865 c-6 -40 -4 -53 7 -43 3 3 4 23 2 44 l-3 39 -6 -40z"/>
<path d="M3525 1843 c-16 -31 -31 -60 -33 -64 -2 -3 4 -14 13 -23 15 -15 20
-13 61 31 43 45 45 46 39 20 -6 -27 8 -57 25 -57 5 0 18 16 30 35 25 41 40 45
40 11 0 -23 23 -56 39 -56 16 0 20 14 6 24 -12 10 -12 16 0 51 29 81 13 101
-42 56 -36 -30 -38 -30 -45 -11 -9 24 -40 26 -58 5 -19 -23 -31 -18 -24 10 12
47 -20 27 -51 -32z"/>
<path d="M2630 1805 c-7 -9 -11 -17 -9 -20 3 -2 10 5 17 15 14 24 10 26 -8 5z"/>
<path d="M2700 1798 c0 -28 -14 -43 -45 -51 -13 -3 -10 -5 12 -6 28 -1 63 20
63 37 0 4 -7 16 -15 26 -14 19 -15 19 -15 -6z"/>
<path d="M4268 1760 c-15 -4 -30 -5 -34 -1 -4 3 -4 0 0 -6 10 -18 41 -16 56 2
7 8 11 15 9 14 -2 0 -16 -4 -31 -9z"/>
<path d="M2850 1670 c0 -5 3 -9 8 -8 4 1 17 -3 30 -11 13 -7 43 -18 67 -26 40
-11 47 -11 65 5 11 9 20 25 20 34 0 14 -14 16 -95 16 -57 0 -95 -4 -95 -10z"/>
<path d="M2792 1585 c0 -16 2 -22 5 -12 2 9 2 23 0 30 -3 6 -5 -1 -5 -18z"/>
<path d="M2873 1556 c15 -12 12 -13 -28 -9 -56 7 -61 -12 -7 -27 49 -13 149
-25 140 -15 -3 4 -24 13 -45 21 l-38 15 40 -6 c22 -3 67 -8 100 -11 91 -8 43
16 -65 32 -111 17 -120 17 -97 0z"/>
</g>
</svg>
